<svg width="181" height="134" viewBox="0 0 181 134" fill="none" xmlns="http://www.w3.org/2000/svg">
<path d="M6.15283 43.0832C3.62935 40.0878 1.47365 37.1824 0 35.1963C14.6046 32.9219 24.5859 37.6045 31.5664 51.7948C35.4921 59.7752 38.6698 68.1202 42.3788 76.2119C44.7687 81.4259 47.5335 86.4673 50.0894 91.6065C52.5926 96.6399 55.044 101.699 57.8951 107.516C61.8151 100.135 65.5071 93.3595 69.0225 86.4937C70.9411 82.7466 72.4838 78.8088 74.3343 75.0246C76.6143 70.362 80.1906 67.8789 85.6443 67.9317C90.969 67.9833 94.8339 69.7994 97.3276 74.6985C102.849 85.5462 108.559 96.2984 114.587 107.848C125.986 83.8307 137.002 60.6211 148.36 36.6924C142.601 35.1615 137.068 33.6904 130.568 31.9624C143.942 22.1035 156.699 13.3018 170.55 4.40355C172.402 12.3524 173.857 18.5078 175.266 24.6736C176.97 32.1232 178.695 39.5687 180.261 47.0474C180.556 48.4536 180.148 50.007 180.064 51.4924C178.937 51.0131 177.746 50.6442 176.697 50.0314C174.531 48.7664 172.441 47.3729 170.321 46.0292C165.576 43.0213 164.883 43.2131 162.491 48.4364C153.031 69.0917 143.596 89.7581 134.137 110.414C131.769 115.586 129.312 120.718 126.961 125.898C124.667 130.951 120.102 133.608 115.265 133.648C110.934 133.684 106.728 131.522 104.385 126.598C98.7531 114.758 92.5607 103.183 86.3589 91.0408C83.6008 96.4484 80.9597 101.676 78.2735 106.881C74.6226 113.955 70.9229 121.004 67.272 128.078C65.0865 132.313 61.2857 134.476 56.9265 133.809C52.3931 133.115 48.2916 130.962 46.0777 126.144C38.3646 109.362 30.4174 92.6863 22.5892 75.9561C18.4575 67.126 14.4342 58.2448 10.2573 49.4363C9.22044 47.2497 7.77711 45.2558 6.15283 43.0832Z" fill="#5EA500"/>
<path d="M52.2905 70.8046C47.6137 62.1291 51.554 54.9726 58.5375 48.8308C68.3897 40.166 79.8427 38.4455 92.6475 39.7598C104.481 40.9745 113.123 46.2555 119.571 55.7845C122.73 60.454 123.393 65.2705 120.537 70.5597C118.346 74.6178 116.851 79.0512 114.389 84.8713C111.623 79.5336 109.292 75.6893 107.577 71.5874C104.323 63.8049 98.7679 58.9862 90.4043 58.1188C80.6958 57.1119 71.9218 58.7289 67.0021 68.7102C64.5014 73.7837 61.7841 78.7503 58.7221 84.6127C56.3292 79.6011 54.3241 75.4018 52.2905 70.8046Z" fill="#5EA500"/>
<circle cx="86.2706" cy="16" r="16" fill="#5EA500"/>
</svg>
